<svg version="1.1" id="Layer_1" xmlns="http://www.w3.org/2000/svg" xmlns:xlink="http://www.w3.org/1999/xlink" x="0px" y="0px"
	 width="100%" viewBox="0 0 243 67" enable-background="new 0 0 243 67" xml:space="preserve">
<path fill="#C6D6EA" opacity="1.000000" stroke="none" 
	d="
M167.000000,68.000000 
	C111.333351,68.000000 56.166698,68.000000 1.000037,68.000000 
	C1.000025,45.666691 1.000025,23.333380 1.000012,1.000052 
	C81.999954,1.000035 162.999908,1.000035 243.999908,1.000017 
	C243.999939,23.333281 243.999939,45.666561 243.999969,67.999924 
	C218.500000,68.000000 193.000000,68.000000 167.000000,68.000000 
M30.269785,20.936939 
	C28.654726,20.936939 27.039669,20.936939 24.179192,20.936939 
	C26.476507,23.446800 27.611151,24.686419 28.301758,25.440920 
	C26.863535,27.138168 25.766798,28.432430 24.670061,29.726696 
	C26.330242,29.804291 27.990253,29.886152 29.650883,29.952562 
	C29.808668,29.958872 29.978188,29.886368 30.129045,29.820290 
	C35.224121,27.588549 38.734425,30.316936 42.051010,33.101074 
	C37.375561,39.882427 29.936817,34.972118 24.146368,36.742027 
	C24.222086,37.209846 24.297804,37.677662 24.373520,38.145481 
	C25.964684,38.827812 27.555849,39.510147 29.408854,40.304768 
	C27.845570,41.719318 26.557417,42.884918 24.375437,44.859306 
	C27.131128,45.419247 28.879108,45.774426 29.488474,45.898243 
	C31.237675,47.691051 32.339096,48.819931 33.440517,49.948807 
	C34.437023,48.670170 36.024220,47.514702 36.321232,46.090214 
	C37.279884,41.492554 39.379379,38.339169 44.358982,37.469025 
	C44.450691,42.826515 44.302822,47.713531 39.553604,51.052414 
	C38.926651,51.493187 39.035480,52.980522 38.803539,53.983162 
	C39.854282,54.088474 40.955017,54.432602 41.940536,54.226315 
	C42.784908,54.049564 43.497349,53.242565 44.006943,52.893311 
	C44.750595,54.398754 45.373684,55.660130 45.996769,56.921501 
	C47.445141,55.960270 48.893509,54.999035 50.256516,54.094452 
	C51.830338,53.995255 53.587723,53.884491 55.345108,53.773724 
	C54.538944,52.303593 54.068790,50.422504 52.865215,49.438427 
	C48.845158,46.151505 48.274490,42.229568 49.660774,37.254368 
	C53.790878,38.997356 56.918159,40.839153 57.561867,45.591713 
	C57.773830,47.156681 59.832401,48.471531 61.046589,49.900753 
	C61.703167,48.263077 62.359741,46.625401 63.000999,44.999390 
	C63.000999,44.999390 62.990086,45.014297 63.658756,45.269924 
	C65.291046,45.269924 66.923332,45.269924 68.555626,45.269924 
	C68.581093,44.792381 68.606567,44.314835 68.632034,43.837292 
	C67.298866,42.772144 65.965698,41.706993 64.338585,40.406998 
	C66.478264,39.440296 68.161728,38.679707 71.239914,37.288986 
	C64.024834,34.665962 56.460907,39.966190 51.861744,33.072487 
	C55.586559,29.373447 59.747578,27.926283 64.944458,30.008503 
	C66.174637,30.501392 67.882423,29.802267 69.370506,29.651468 
	C68.164902,28.678507 66.954277,27.711658 65.756714,26.728889 
	C65.392914,26.430338 65.065178,26.087830 64.637680,25.687492 
	C66.095161,24.513533 67.453484,23.419436 68.811813,22.325338 
	C68.739418,21.923580 68.667030,21.521824 68.594635,21.120068 
	C66.647331,21.120068 64.700035,21.120068 63.714447,21.120068 
	C62.585835,19.151939 61.705997,17.617632 60.826160,16.083324 
	C59.744331,17.616974 58.168762,19.008293 57.677589,20.712208 
	C56.436790,25.016590 54.475033,28.148661 49.818291,28.421059 
	C45.887405,20.843904 54.335575,18.204494 56.408485,11.920521 
	C53.529957,12.373837 51.715294,12.659615 49.945065,12.938394 
	C48.986835,12.069636 47.691998,10.077049 46.810165,10.245576 
	C43.845383,10.812173 41.027699,12.148491 37.492771,13.429875 
	C41.658737,17.850449 45.928013,21.970055 44.147648,28.893288 
	C40.058136,27.291140 37.255516,25.136593 36.484707,20.531610 
	C36.213486,18.911270 34.248791,17.574396 33.057331,16.108091 
	C32.382969,17.729778 31.708607,19.351463 31.002295,21.000154 
	C31.002295,21.000154 30.975368,21.032085 30.269785,20.936939 
M192.597305,6.263414 
	C189.687927,4.652634 187.332321,4.270486 186.184448,8.409532 
	C185.832825,9.677394 184.358749,11.664973 183.537125,11.598993 
	C179.206100,11.251194 179.062408,14.428949 178.479462,17.958355 
	C176.231308,16.544146 172.941727,15.278041 173.039261,14.379628 
	C173.291977,12.051628 175.036514,9.885576 176.232971,7.562781 
	C172.943741,4.440278 170.381699,4.544765 168.088257,9.186375 
	C166.609177,12.179768 164.994965,15.535139 160.572449,15.526888 
	C159.775040,15.525400 158.974594,17.156988 157.963333,18.267685 
	C159.270203,19.021549 159.965942,19.458895 160.692673,19.836603 
	C169.052887,24.181660 169.351013,27.490177 161.903290,33.511665 
	C161.519028,33.822346 160.738251,33.960930 160.669312,34.290062 
	C160.304489,36.032013 160.108566,37.809334 159.854080,39.574394 
	C161.248413,39.597633 162.671204,39.811241 164.031662,39.607834 
	C167.860977,39.035294 171.647125,38.150864 175.485504,37.671257 
	C177.545563,37.413849 179.702377,37.968918 181.773224,37.752548 
	C187.845612,37.118092 194.034775,35.022362 199.684860,39.831932 
	C200.893982,39.247871 202.161423,38.344414 203.563644,38.015499 
	C207.096451,37.186821 210.807022,33.683372 214.200897,38.581348 
	C214.553848,39.090714 216.980820,38.839733 217.787903,38.160358 
	C218.539642,37.527561 218.953873,35.642509 218.577377,34.673775 
	C217.227997,31.201588 215.480194,27.884241 213.664246,24.045883 
	C214.855652,22.705469 216.461517,20.898788 218.068436,19.090908 
	C214.475479,13.513018 211.098846,17.101566 207.703827,19.966784 
	C207.315399,19.528303 206.926971,19.089825 206.538544,18.651344 
	C209.018661,15.083521 211.498764,11.515697 213.977249,7.950198 
	C208.573578,4.231631 208.515228,4.283127 205.150284,9.774014 
	C203.830505,11.927586 202.231491,13.910037 201.325531,15.178246 
	C197.891830,13.422456 195.383911,12.140063 192.763306,10.800050 
	C192.866562,9.691538 193.010742,8.143663 192.597305,6.263414 
M126.024239,53.480759 
	C126.024719,55.646935 126.035522,57.813175 126.022995,59.979275 
	C126.008331,62.513660 125.630386,65.063667 129.608826,65.001022 
	C133.722092,64.936256 132.938766,62.125256 132.955963,59.757717 
	C133.008286,52.553631 132.974930,45.348915 132.974930,37.437702 
	C137.198563,42.731056 140.533203,47.504074 144.490738,51.687893 
	C147.839462,55.228096 149.631592,54.625034 152.470932,49.872677 
	C143.066345,43.208000 138.074402,33.507156 133.601379,22.062170 
	C137.478180,22.062170 140.432861,22.300516 143.327072,21.984661 
	C145.532318,21.743998 147.660858,20.800205 149.823517,20.169224 
	C147.748611,19.452791 145.684998,18.157185 143.596909,18.116444 
	C132.311676,17.896271 132.309586,18.003435 133.296341,6.683909 
	C127.986748,4.289091 126.479736,4.712963 126.043251,8.723959 
	C125.035912,17.980753 125.035912,17.980856 115.742188,18.023090 
	C115.075684,18.026119 114.336189,17.839596 113.757751,18.065996 
	C112.530388,18.546385 111.386902,19.241085 110.209030,19.847919 
	C111.428200,20.584396 112.603714,21.851418 113.874870,21.955994 
	C117.419594,22.247610 121.003960,22.057354 125.902008,22.057354 
	C123.653557,26.540186 122.421066,30.006880 120.363029,32.882820 
	C116.513840,38.261745 112.094482,43.229862 108.135101,48.535137 
	C107.354919,49.580524 107.580132,51.376240 107.341675,52.825916 
	C109.003334,52.921558 110.727264,53.322021 112.303596,52.999981 
	C113.268799,52.802799 114.088776,51.565334 114.834152,50.677643 
	C118.383797,46.450317 121.885498,42.182739 126.024124,37.180206 
	C126.024124,42.905178 126.024124,47.698727 126.024239,53.480759 
M180.065308,47.441391 
	C178.373840,49.140659 176.969727,51.423336 174.934952,52.425518 
	C169.655685,55.025684 164.098938,57.062462 158.616547,59.339203 
	C161.734238,63.432537 162.316315,63.906261 166.503021,62.185097 
	C172.557083,59.696255 178.403091,56.701286 184.978180,53.622402 
	C184.978180,56.258198 184.647446,58.911896 185.114136,61.417042 
	C185.356750,62.719429 187.007614,63.759472 188.022339,64.918022 
	C189.311066,63.776115 191.367538,62.829418 191.718491,61.449070 
	C192.329483,59.046001 191.888489,56.375462 191.888489,53.974060 
	C198.739777,57.021858 204.853577,59.891533 211.092758,62.456135 
	C214.395004,63.813519 216.910126,62.892643 217.459000,59.588070 
	C209.796219,56.042412 202.447861,52.642239 195.099503,49.242069 
	C195.298630,48.513264 195.497757,47.784458 195.696884,47.055653 
	C201.757996,47.055653 207.821365,47.142521 213.878372,46.984779 
	C215.139908,46.951923 216.377869,46.014038 217.626694,45.493233 
	C216.414612,44.680035 215.231827,43.221001 213.985428,43.164474 
	C208.330765,42.908024 202.646866,43.248711 196.998276,42.932198 
	C195.075974,42.824482 193.226303,41.420380 191.343430,40.608643 
	C191.372177,39.871796 191.400909,39.134945 191.429642,38.398098 
	C189.302750,39.170616 187.140717,39.860405 185.060806,40.743572 
	C183.575363,41.374317 182.227310,42.867466 180.770935,42.933178 
	C174.949738,43.195824 169.107605,42.964516 163.279770,43.137112 
	C162.243057,43.167812 161.237457,44.249664 160.217499,44.846142 
	C161.269684,45.579338 162.293777,46.894825 163.378799,46.947147 
	C168.699722,47.203751 174.036850,47.124298 180.065308,47.441391 
M96.485138,50.936123 
	C94.903267,53.250954 92.716232,55.389381 91.970436,57.947926 
	C91.535149,59.441196 93.404503,61.606258 94.236992,63.469082 
	C95.586311,62.826725 97.559448,62.547089 98.179497,61.480698 
	C101.249611,56.200577 104.252563,50.837414 106.659927,45.237309 
	C107.640335,42.956650 107.054207,40.002575 107.180817,37.354893 
	C106.376534,37.134647 105.572258,36.914398 104.767975,36.694153 
	C102.133072,41.232922 99.498177,45.771687 96.485138,50.936123 
M106.430664,27.080427 
	C99.261772,19.805651 94.413452,18.528603 91.375443,23.371607 
	C94.923470,25.418240 98.353065,27.724998 102.081482,29.343302 
	C103.173103,29.817120 105.114342,28.333502 106.430664,27.080427 
M96.484726,9.143273 
	C99.641502,11.182365 102.690697,13.432766 106.022079,15.128918 
	C106.993340,15.623425 108.769653,14.536749 110.176941,14.174847 
	C109.731308,12.966444 109.633614,11.311999 108.770531,10.638753 
	C106.719513,9.038852 104.382179,7.742291 102.017334,6.626722 
	C99.754776,5.559408 97.485664,5.401154 96.484726,9.143273 
z"/>
<path fill="#FAFCFE" opacity="1.000000" stroke="none" 
	d="
M192.876114,6.429601 
	C193.010742,8.143663 192.866562,9.691538 192.763306,10.800050 
	C195.383911,12.140063 197.891830,13.422456 201.325531,15.178246 
	C202.231491,13.910037 203.830505,11.927586 205.150284,9.774014 
	C208.515228,4.283127 208.573578,4.231631 213.977249,7.950198 
	C211.498764,11.515697 209.018661,15.083521 206.538544,18.651344 
	C206.926971,19.089825 207.315399,19.528303 207.703827,19.966784 
	C211.098846,17.101566 214.475479,13.513018 218.068436,19.090908 
	C216.461517,20.898788 214.855652,22.705469 213.664246,24.045883 
	C215.480194,27.884241 217.227997,31.201588 218.577377,34.673775 
	C218.953873,35.642509 218.539642,37.527561 217.787903,38.160358 
	C216.980820,38.839733 214.553848,39.090714 214.200897,38.581348 
	C210.807022,33.683372 207.096451,37.186821 203.563644,38.015499 
	C202.161423,38.344414 200.893982,39.247871 199.684860,39.831932 
	C194.034775,35.022362 187.845612,37.118092 181.773224,37.752548 
	C179.702377,37.968918 177.545563,37.413849 175.485504,37.671257 
	C171.647125,38.150864 167.860977,39.035294 164.031662,39.607834 
	C162.671204,39.811241 161.248413,39.597633 159.854080,39.574394 
	C160.108566,37.809334 160.304489,36.032013 160.669312,34.290062 
	C160.738251,33.960930 161.519028,33.822346 161.903290,33.511665 
	C169.351013,27.490177 169.052887,24.181660 160.692673,19.836603 
	C159.965942,19.458895 159.270203,19.021549 157.963333,18.267685 
	C158.974594,17.156988 159.775040,15.525400 160.572449,15.526888 
	C164.994965,15.535139 166.609177,12.179768 168.088257,9.186375 
	C170.381699,4.544765 172.943741,4.440278 176.232971,7.562781 
	C175.036514,9.885576 173.291977,12.051628 173.039261,14.379628 
	C172.941727,15.278041 176.231308,16.544146 178.479462,17.958355 
	C179.062408,14.428949 179.206100,11.251194 183.537125,11.598993 
	C184.358749,11.664973 185.832825,9.677394 186.184448,8.409532 
	C187.332321,4.270486 189.687927,4.652634 192.876114,6.429601 
M198.174500,31.412603 
	C199.059113,31.460697 200.388290,31.902651 200.753418,31.490511 
	C202.593262,29.413794 204.181717,27.114380 206.231491,24.398867 
	C203.583954,22.831202 201.302460,21.480274 198.082779,19.573824 
	C198.082779,24.065453 198.082779,27.350882 198.174500,31.412603 
M191.906326,31.197071 
	C191.314651,29.521051 190.946411,27.693987 189.983170,26.269157 
	C189.723862,25.885601 186.863159,26.396355 186.584381,27.070496 
	C186.006393,28.468184 185.782837,31.287722 186.449493,31.658102 
	C187.817291,32.418045 189.867233,31.950218 191.906326,31.197071 
M190.249146,16.087149 
	C188.854599,16.774775 187.186462,17.207232 186.194763,18.270567 
	C185.774490,18.721216 186.433426,21.015388 187.219620,21.532509 
	C188.109467,22.117828 190.741898,21.878466 190.802521,21.601097 
	C191.170532,19.917839 191.020905,18.121414 190.249146,16.087149 
z"/>
<path fill="#F9FCFE" opacity="1.000000" stroke="none" 
	d="
M63.016319,44.987728 
	C62.359741,46.625401 61.703167,48.263077 61.046593,49.900753 
	C59.832401,48.471531 57.773830,47.156681 57.561867,45.591713 
	C56.918159,40.839153 53.790878,38.997356 49.660774,37.254368 
	C48.274490,42.229568 48.845158,46.151505 52.865215,49.438427 
	C54.068790,50.422504 54.538944,52.303593 55.345108,53.773727 
	C53.587723,53.884491 51.830338,53.995255 50.256516,54.094452 
	C48.893509,54.999035 47.445141,55.960270 45.996769,56.921501 
	C45.373684,55.660130 44.750595,54.398754 44.006943,52.893311 
	C43.497349,53.242565 42.784908,54.049564 41.940536,54.226315 
	C40.955017,54.432602 39.854282,54.088474 38.803539,53.983162 
	C39.035480,52.980522 38.926651,51.493187 39.553604,51.052414 
	C44.302822,47.713531 44.450691,42.826515 44.358982,37.469025 
	C39.379379,38.339169 37.279884,41.492554 36.321232,46.090214 
	C36.024220,47.514702 34.437023,48.670170 33.440517,49.948807 
	C32.339096,48.819931 31.237675,47.691051 29.488474,45.898243 
	C28.879108,45.774426 27.131128,45.419247 24.375437,44.859306 
	C26.557417,42.884918 27.845570,41.719318 29.408854,40.304768 
	C27.555849,39.510147 25.964684,38.827812 24.373520,38.145481 
	C24.297804,37.677662 24.222086,37.209846 24.146368,36.742027 
	C29.936817,34.972118 37.375561,39.882427 42.051010,33.101074 
	C38.734425,30.316936 35.224121,27.588549 30.129045,29.820290 
	C29.978188,29.886368 29.808668,29.958872 29.650883,29.952562 
	C27.990253,29.886152 26.330242,29.804291 24.670059,29.726694 
	C25.766798,28.432430 26.863535,27.138168 28.301758,25.440920 
	C27.611151,24.686419 26.476507,23.446800 24.179192,20.936939 
	C27.039669,20.936939 28.654726,20.936939 30.676390,21.097492 
	C31.082994,21.258047 31.422197,21.248793 31.422197,21.248793 
	C31.422197,21.248793 31.034245,20.973150 31.034245,20.973150 
	C31.708607,19.351463 32.382969,17.729778 33.057331,16.108091 
	C34.248791,17.574396 36.213486,18.911270 36.484707,20.531610 
	C37.255516,25.136593 40.058136,27.291140 44.147648,28.893288 
	C45.928013,21.970055 41.658737,17.850449 37.492771,13.429875 
	C41.027699,12.148491 43.845383,10.812173 46.810165,10.245576 
	C47.691998,10.077049 48.986835,12.069636 49.945065,12.938394 
	C51.715294,12.659615 53.529957,12.373837 56.408485,11.920521 
	C54.335575,18.204494 45.887405,20.843904 49.818291,28.421059 
	C54.475033,28.148661 56.436790,25.016590 57.677589,20.712208 
	C58.168762,19.008293 59.744331,17.616974 60.826160,16.083324 
	C61.705997,17.617632 62.585835,19.151939 63.714447,21.120068 
	C64.700035,21.120068 66.647331,21.120068 68.594635,21.120068 
	C68.667030,21.521824 68.739418,21.923580 68.811813,22.325338 
	C67.453484,23.419436 66.095161,24.513533 64.637680,25.687492 
	C65.065178,26.087830 65.392914,26.430338 65.756714,26.728889 
	C66.954277,27.711658 68.164902,28.678507 69.370506,29.651470 
	C67.882423,29.802267 66.174637,30.501392 64.944458,30.008503 
	C59.747578,27.926283 55.586559,29.373447 51.868385,33.075203 
	C56.460907,39.966190 64.024834,34.665962 71.239914,37.288986 
	C68.161728,38.679707 66.478264,39.440296 64.338585,40.406998 
	C65.965698,41.706993 67.298866,42.772144 68.632034,43.837292 
	C68.606567,44.314835 68.581093,44.792381 68.555626,45.269924 
	C66.923332,45.269924 65.291046,45.269924 63.277313,45.044365 
	C62.895870,44.818802 62.645668,44.809814 62.645668,44.809814 
	C62.645668,44.809814 63.016319,44.987728 63.016319,44.987728 
z"/>
<path fill="#FBFDFE" opacity="1.000000" stroke="none" 
	d="
M126.024185,52.986519 
	C126.024124,47.698727 126.024124,42.905178 126.024124,37.180206 
	C121.885498,42.182739 118.383797,46.450317 114.834152,50.677643 
	C114.088776,51.565334 113.268799,52.802799 112.303596,52.999981 
	C110.727264,53.322021 109.003334,52.921558 107.341675,52.825916 
	C107.580132,51.376240 107.354919,49.580524 108.135101,48.535137 
	C112.094482,43.229862 116.513840,38.261745 120.363029,32.882820 
	C122.421066,30.006880 123.653557,26.540186 125.902008,22.057354 
	C121.003960,22.057354 117.419594,22.247610 113.874870,21.955994 
	C112.603714,21.851418 111.428200,20.584396 110.209030,19.847919 
	C111.386902,19.241085 112.530388,18.546385 113.757751,18.065996 
	C114.336189,17.839596 115.075684,18.026119 115.742188,18.023090 
	C125.035912,17.980856 125.035912,17.980753 126.043251,8.723959 
	C126.479736,4.712963 127.986748,4.289091 133.296341,6.683909 
	C132.309586,18.003435 132.311676,17.896271 143.596909,18.116444 
	C145.684998,18.157185 147.748611,19.452791 149.823517,20.169224 
	C147.660858,20.800205 145.532318,21.743998 143.327072,21.984661 
	C140.432861,22.300516 137.478180,22.062170 133.601379,22.062170 
	C138.074402,33.507156 143.066345,43.208000 152.470932,49.872677 
	C149.631592,54.625034 147.839462,55.228096 144.490738,51.687893 
	C140.533203,47.504074 137.198563,42.731056 132.974930,37.437702 
	C132.974930,45.348915 133.008286,52.553631 132.955963,59.757717 
	C132.938766,62.125256 133.722092,64.936256 129.608826,65.001022 
	C125.630386,65.063667 126.008331,62.513660 126.022995,59.979275 
	C126.035522,57.813175 126.024719,55.646935 126.024185,52.986519 
z"/>
<path fill="#FAFCFE" opacity="1.000000" stroke="none" 
	d="
M179.716782,47.302486 
	C174.036850,47.124298 168.699722,47.203751 163.378799,46.947147 
	C162.293777,46.894825 161.269684,45.579338 160.217499,44.846138 
	C161.237457,44.249664 162.243057,43.167812 163.279770,43.137112 
	C169.107605,42.964516 174.949738,43.195824 180.770935,42.933178 
	C182.227310,42.867466 183.575363,41.374317 185.060806,40.743572 
	C187.140717,39.860405 189.302750,39.170616 191.429642,38.398098 
	C191.400909,39.134945 191.372177,39.871796 191.343430,40.608643 
	C193.226303,41.420380 195.075974,42.824482 196.998276,42.932198 
	C202.646866,43.248711 208.330765,42.908024 213.985428,43.164474 
	C215.231827,43.221001 216.414612,44.680035 217.626694,45.493233 
	C216.377869,46.014038 215.139908,46.951923 213.878372,46.984779 
	C207.821365,47.142521 201.757996,47.055653 195.696884,47.055653 
	C195.497757,47.784458 195.298630,48.513264 195.099503,49.242069 
	C202.447861,52.642239 209.796219,56.042412 217.459000,59.588070 
	C216.910126,62.892643 214.395004,63.813519 211.092758,62.456135 
	C204.853577,59.891533 198.739777,57.021858 191.888489,53.974060 
	C191.888489,56.375462 192.329483,59.046001 191.718491,61.449070 
	C191.367538,62.829418 189.311066,63.776115 188.022339,64.918022 
	C187.007614,63.759472 185.356750,62.719429 185.114136,61.417042 
	C184.647446,58.911896 184.978180,56.258198 184.978180,53.622402 
	C178.403091,56.701286 172.557083,59.696255 166.503021,62.185097 
	C162.316315,63.906261 161.734238,63.432537 158.616547,59.339203 
	C164.098938,57.062462 169.655685,55.025684 174.934952,52.425518 
	C176.969727,51.423336 178.373840,49.140659 179.716782,47.302486 
z"/>
<path fill="#FAFDFE" opacity="1.000000" stroke="none" 
	d="
M96.674210,50.623291 
	C99.498177,45.771687 102.133072,41.232922 104.767975,36.694153 
	C105.572258,36.914398 106.376534,37.134647 107.180817,37.354893 
	C107.054207,40.002575 107.640335,42.956650 106.659927,45.237309 
	C104.252563,50.837414 101.249611,56.200577 98.179497,61.480698 
	C97.559448,62.547089 95.586311,62.826725 94.236992,63.469082 
	C93.404503,61.606258 91.535149,59.441196 91.970436,57.947926 
	C92.716232,55.389381 94.903267,53.250954 96.674210,50.623291 
z"/>
<path fill="#F9FDFE" opacity="1.000000" stroke="none" 
	d="
M106.548416,27.413738 
	C105.114342,28.333502 103.173103,29.817120 102.081482,29.343302 
	C98.353065,27.724998 94.923470,25.418240 91.375443,23.371607 
	C94.413452,18.528603 99.261772,19.805651 106.548416,27.413738 
z"/>
<path fill="#F9FCFE" opacity="1.000000" stroke="none" 
	d="
M96.448883,8.794106 
	C97.485664,5.401154 99.754776,5.559408 102.017334,6.626722 
	C104.382179,7.742291 106.719513,9.038852 108.770531,10.638753 
	C109.633614,11.311999 109.731308,12.966444 110.176941,14.174847 
	C108.769653,14.536749 106.993340,15.623425 106.022079,15.128918 
	C102.690697,13.432766 99.641502,11.182365 96.448883,8.794106 
z"/>
<path fill="#CFDAE8" opacity="1.000000" stroke="none" 
	d="
M198.128632,31.024456 
	C198.082779,27.350882 198.082779,24.065453 198.082779,19.573824 
	C201.302460,21.480274 203.583954,22.831202 206.231491,24.398867 
	C204.181717,27.114380 202.593262,29.413794 200.753418,31.490511 
	C200.388290,31.902651 199.059113,31.460697 198.128632,31.024456 
z"/>
<path fill="#CBD8E7" opacity="1.000000" stroke="none" 
	d="
M191.771332,31.592447 
	C189.867233,31.950218 187.817291,32.418045 186.449493,31.658102 
	C185.782837,31.287722 186.006393,28.468184 186.584381,27.070496 
	C186.863159,26.396355 189.723862,25.885601 189.983170,26.269157 
	C190.946411,27.693987 191.314651,29.521051 191.771332,31.592447 
z"/>
<path fill="#C9D5E4" opacity="1.000000" stroke="none" 
	d="
M190.646652,16.224968 
	C191.020905,18.121414 191.170532,19.917839 190.802521,21.601097 
	C190.741898,21.878466 188.109467,22.117828 187.219620,21.532509 
	C186.433426,21.015388 185.774490,18.721216 186.194763,18.270567 
	C187.186462,17.207232 188.854599,16.774775 190.646652,16.224968 
z"/>
<path fill="#C6D6EA" opacity="1.000000" stroke="none" 
	d="
M31.018269,20.986652 
	C31.034245,20.973150 31.422197,21.248793 31.422197,21.248793 
	C31.422197,21.248793 31.082994,21.258047 31.029182,21.145065 
	C30.975368,21.032085 31.002295,21.000154 31.018269,20.986652 
z"/>
<path fill="#C6D6EA" opacity="1.000000" stroke="none" 
	d="
M63.008659,44.993561 
	C63.016319,44.987728 62.645668,44.809814 62.645668,44.809814 
	C62.645668,44.809814 62.895870,44.818802 62.942978,44.916550 
	C62.990086,45.014297 63.000999,44.999390 63.008659,44.993561 
z"/>
</svg>